<?xml version="1.0" encoding="UTF-8"?>
<!DOCTYPE svg PUBLIC "-//W3C//DTD SVG 1.1//EN" "http://www.w3.org/Graphics/SVG/1.1/DTD/svg11.dtd">
<svg width="800pt" height="800pt" viewBox="0 0 800 800" version="1.1" xmlns="http://www.w3.org/2000/svg">
<g id="#004680ff">
<path fill="#004680" opacity="1.00" d=" M 326.38 0.00 L 473.45 0.00 C 478.88 5.24 486.74 3.57 493.38 5.68 C 498.45 7.25 503.70 8.14 508.84 9.47 C 520.47 12.90 532.06 16.54 543.39 20.89 C 550.37 23.67 557.65 25.68 564.49 28.82 C 581.54 37.04 598.75 45.05 614.64 55.39 C 625.56 61.58 635.36 69.42 645.73 76.42 C 650.28 79.80 654.24 83.90 658.80 87.27 C 673.19 97.66 684.80 111.23 697.51 123.49 C 705.87 131.27 711.79 141.15 719.60 149.42 C 724.16 154.33 727.35 160.26 731.46 165.51 C 736.46 172.01 740.75 179.01 745.03 185.99 C 755.44 202.14 763.62 219.58 771.79 236.93 C 779.81 255.79 786.96 275.14 791.41 295.19 C 792.75 301.83 795.18 308.23 795.85 315.01 C 796.12 318.78 797.97 322.09 800.00 325.18 L 800.00 473.63 C 798.31 476.19 796.18 478.71 796.02 481.93 C 795.54 487.05 794.91 492.17 793.32 497.07 C 789.42 513.52 784.31 529.68 778.34 545.49 C 773.18 559.57 766.14 572.83 759.59 586.29 C 754.76 596.51 748.70 606.05 742.88 615.72 C 738.14 622.97 733.72 630.47 728.29 637.24 C 724.25 642.54 720.96 648.43 716.26 653.22 C 708.93 660.97 703.17 670.05 695.52 677.52 C 684.92 687.96 674.92 699.13 662.92 708.03 C 656.44 712.85 650.97 718.90 644.20 723.32 C 637.96 727.39 632.42 732.46 625.97 736.22 C 586.51 762.48 542.50 782.21 496.26 792.77 C 493.20 793.67 490.24 795.00 487.05 795.33 C 483.87 795.70 480.62 795.38 477.47 796.00 C 474.99 796.72 473.11 798.62 470.99 800.00 L 328.81 800.00 C 326.65 798.36 324.61 796.13 321.77 795.84 C 317.67 795.33 313.42 795.91 309.44 794.59 C 306.01 793.44 302.61 792.15 299.01 791.61 C 293.21 790.71 287.77 788.43 282.06 787.15 C 243.76 775.74 207.23 758.44 174.06 736.14 C 167.46 732.19 161.67 727.09 155.27 722.85 C 148.20 718.02 142.19 711.84 135.23 706.86 C 127.62 701.19 121.18 694.18 114.45 687.54 C 106.66 679.64 98.40 672.11 91.85 663.09 C 86.72 655.93 80.05 650.01 75.36 642.52 C 69.18 633.67 62.47 625.16 57.00 615.83 C 51.69 606.48 45.63 597.55 41.09 587.78 C 35.46 576.57 29.81 565.35 25.26 553.65 C 21.05 543.68 18.43 533.15 14.73 523.00 C 10.86 509.39 4.87 496.20 3.87 481.93 C 3.90 478.38 1.97 475.40 0.00 472.62 L 0.00 327.16 C 1.96 324.08 3.88 320.82 3.95 317.06 C 4.22 311.47 5.76 306.11 7.28 300.76 C 8.62 293.72 11.94 287.28 13.36 280.26 C 26.94 236.05 48.01 194.03 75.87 157.08 C 80.65 149.35 87.52 143.28 92.88 135.98 C 100.97 125.16 111.02 116.06 120.46 106.47 C 129.40 97.29 140.07 90.11 149.48 81.46 C 155.39 76.64 161.92 72.65 167.86 67.85 C 183.34 57.63 198.98 47.50 215.70 39.40 C 227.14 33.42 238.67 27.45 250.99 23.49 C 263.08 19.45 275.04 15.03 287.30 11.56 C 294.00 8.75 301.09 7.21 308.07 5.31 C 314.21 3.58 321.60 5.16 326.38 0.00 M 390.41 44.40 C 380.47 44.07 370.96 47.86 361.04 47.64 C 355.20 47.63 349.20 47.49 343.66 49.60 C 339.61 51.22 335.28 51.64 330.97 51.88 C 325.73 52.18 321.19 55.26 315.97 55.66 C 311.00 55.94 306.65 58.53 301.88 59.59 C 296.23 60.71 291.04 63.33 285.45 64.72 C 277.47 68.15 268.89 70.04 261.13 74.02 C 248.12 79.58 235.66 86.31 223.43 93.41 C 217.62 96.09 212.85 100.42 207.30 103.54 C 203.11 105.93 199.71 109.47 195.48 111.79 C 191.78 113.84 188.53 116.57 185.55 119.55 C 181.31 123.74 176.01 126.61 171.55 130.55 C 166.76 134.74 162.02 139.01 157.57 143.56 C 148.64 152.61 139.26 161.35 131.75 171.66 C 126.84 178.67 120.55 184.60 116.05 191.91 C 109.23 200.67 103.65 210.29 97.68 219.62 C 90.10 233.20 82.87 247.00 76.67 261.28 C 73.80 268.92 70.46 276.41 67.86 284.15 C 67.36 289.43 63.47 293.64 63.43 299.01 C 63.31 301.99 61.73 304.57 60.50 307.21 C 59.34 309.64 59.66 312.42 59.33 315.03 C 59.05 319.22 56.78 322.91 56.09 327.01 C 55.54 330.07 55.68 333.21 55.19 336.28 C 54.59 339.98 53.00 343.42 52.32 347.10 C 51.29 352.26 51.80 357.54 51.56 362.75 C 51.31 371.12 48.58 379.20 48.44 387.58 C 48.24 395.86 48.24 404.14 48.45 412.42 C 48.68 421.69 51.69 430.67 51.62 439.97 C 51.58 446.11 51.55 452.40 53.73 458.25 C 55.43 462.66 55.61 467.41 55.55 472.09 C 55.33 475.54 57.37 478.46 58.55 481.56 C 59.84 484.73 59.17 488.26 60.02 491.54 C 60.99 494.40 62.99 496.91 63.29 500.00 C 63.64 502.67 63.84 505.45 65.22 507.84 C 67.59 511.97 67.54 516.94 69.77 521.14 C 71.89 526.84 74.32 532.42 76.43 538.13 C 82.64 552.90 90.21 567.04 98.00 581.02 C 102.64 587.79 106.64 594.98 111.35 601.71 C 116.14 607.35 119.45 614.09 124.61 619.42 C 129.67 624.78 133.36 631.23 138.42 636.58 C 148.60 647.72 159.19 658.52 170.49 668.52 C 175.56 673.19 181.78 676.43 186.57 681.43 C 190.86 686.01 196.80 688.40 201.59 692.36 C 205.84 695.91 210.84 698.39 215.34 701.60 C 222.39 706.53 230.37 709.87 237.82 714.12 C 244.95 718.16 252.65 721.10 259.65 725.40 C 263.71 727.93 268.26 729.49 272.83 730.82 C 279.38 732.52 285.46 735.59 292.01 737.30 C 297.23 739.77 303.12 740.09 308.36 742.49 C 313.22 744.68 318.85 743.89 323.66 746.29 C 329.74 749.21 336.81 747.39 342.95 750.12 C 347.72 752.08 352.92 752.50 358.04 752.37 C 363.74 752.21 369.41 752.98 375.00 754.04 C 386.48 756.35 398.25 755.62 409.89 755.62 C 417.02 755.73 424.00 754.09 431.00 752.96 C 437.30 751.88 443.73 752.77 450.05 752.00 C 454.88 751.43 459.19 748.74 464.08 748.48 C 468.39 748.26 472.70 747.66 476.70 745.97 C 480.27 744.41 484.20 744.53 488.02 744.35 C 491.36 744.25 493.90 741.66 497.09 740.97 C 500.03 740.36 503.15 740.28 505.84 738.78 C 509.77 736.68 514.34 736.33 518.33 734.36 C 541.16 726.19 562.75 714.85 583.60 702.52 C 588.46 698.58 594.31 696.10 599.00 691.94 C 602.68 688.83 607.30 687.08 610.86 683.80 C 614.17 680.77 617.33 677.55 621.09 675.05 C 627.77 670.55 633.59 664.94 639.43 659.43 C 647.24 651.57 655.30 643.93 662.55 635.54 C 667.26 630.21 670.94 624.05 675.86 618.91 C 680.36 614.25 683.24 608.37 687.36 603.40 C 690.25 599.85 692.54 595.88 694.94 591.99 C 710.38 568.26 722.72 542.55 732.24 515.93 C 732.68 510.97 736.27 507.00 736.50 502.03 C 736.63 499.20 737.66 496.57 739.04 494.13 C 740.69 491.41 740.35 488.13 740.83 485.12 C 741.24 481.78 743.27 478.97 744.11 475.77 C 744.80 472.08 744.24 468.25 745.19 464.59 C 746.11 460.71 748.39 457.16 748.43 453.08 C 748.53 447.37 748.43 441.63 749.29 435.96 C 749.77 429.88 752.51 424.19 752.42 418.05 C 752.43 406.02 752.44 393.98 752.42 381.95 C 752.53 375.95 750.03 370.38 749.07 364.55 C 747.99 358.73 748.69 352.80 748.44 346.94 C 748.35 342.64 745.39 339.13 744.72 334.97 C 744.27 331.72 744.68 328.42 744.23 325.18 C 743.57 322.25 741.77 319.74 741.00 316.85 C 740.34 314.09 740.66 311.20 739.99 308.46 C 739.22 306.15 737.78 304.14 737.04 301.83 C 736.40 299.42 736.56 296.87 735.96 294.46 C 735.05 291.89 733.11 289.74 732.75 286.98 C 732.32 284.64 732.05 282.21 730.88 280.10 C 728.72 276.02 727.65 271.50 725.79 267.30 C 719.12 250.33 710.50 234.22 701.65 218.31 C 695.70 209.53 690.52 200.25 683.96 191.91 C 679.61 184.48 673.12 178.71 668.24 171.67 C 662.14 163.27 654.77 155.89 647.43 148.58 C 638.61 139.74 629.78 130.75 619.43 123.67 C 615.13 120.70 611.85 116.49 607.44 113.69 C 604.58 111.87 601.57 110.28 598.99 108.07 C 594.31 103.89 588.48 101.36 583.52 97.56 C 561.41 84.22 538.19 72.50 513.83 63.88 C 511.08 63.27 508.31 62.61 505.84 61.22 C 501.89 58.89 497.02 59.99 492.95 57.98 C 487.68 55.53 481.63 56.05 476.34 53.68 C 472.47 52.02 468.23 51.80 464.09 51.54 C 459.83 51.33 456.03 49.18 451.91 48.35 C 447.04 47.32 442.04 47.79 437.11 47.58 C 428.99 47.40 421.16 44.73 413.03 44.50 C 405.49 44.25 397.95 44.26 390.41 44.40 Z"/>
</g>
</svg>