<?xml version="1.0" encoding="UTF-8"?>
<!DOCTYPE svg PUBLIC "-//W3C//DTD SVG 1.1//EN" "http://www.w3.org/Graphics/SVG/1.1/DTD/svg11.dtd">
<svg width="800pt" height="800pt" viewBox="0 0 800 800" version="1.1" xmlns="http://www.w3.org/2000/svg">
<g id="#ffffffff">
<path fill="#ffffff" opacity="1.00" d=" M 367.75 0.00 L 433.07 0.00 C 439.88 4.32 448.35 3.00 455.98 4.15 C 465.29 4.06 474.19 6.91 483.25 8.61 C 490.86 11.02 498.84 11.97 506.43 14.48 C 562.83 29.78 615.53 58.12 659.91 96.08 C 725.21 151.68 771.99 228.92 790.28 312.76 C 791.91 319.48 792.28 326.45 794.09 333.14 C 796.51 342.55 796.06 352.35 797.46 361.91 C 797.59 364.14 798.91 366.00 800.00 367.87 L 800.00 433.07 C 795.56 440.20 796.99 449.02 795.79 456.98 C 795.91 466.00 792.85 474.56 791.32 483.35 C 789.04 490.96 787.98 498.87 785.52 506.43 C 770.16 563.06 741.65 615.96 703.45 660.45 C 681.93 685.95 656.73 708.24 629.53 727.50 C 589.57 755.59 544.43 776.30 497.02 788.05 C 486.22 790.27 475.59 793.30 464.74 795.28 C 456.19 795.94 447.60 796.26 439.09 797.43 C 436.84 797.57 434.97 798.89 433.10 800.00 L 367.90 800.00 C 363.75 797.13 358.62 797.18 353.83 796.52 C 350.56 796.13 347.30 795.70 344.01 795.61 C 336.49 795.45 329.31 792.93 321.87 792.17 C 271.14 782.35 222.45 762.19 179.40 733.61 C 147.32 712.16 117.91 686.47 93.35 656.65 C 54.27 610.05 25.75 554.45 11.62 495.26 C 8.75 484.94 7.43 474.31 5.06 463.87 C 3.62 455.72 3.87 447.38 2.54 439.22 C 2.27 436.98 1.03 435.05 0.00 433.10 L 0.00 366.94 C 1.10 365.04 2.42 363.16 2.58 360.90 C 4.07 350.22 3.63 339.24 6.70 328.80 C 20.67 246.20 63.00 169.19 123.23 111.23 C 173.55 63.31 236.24 28.14 303.87 11.80 C 310.33 10.69 316.49 8.34 322.97 7.32 C 329.60 5.91 336.18 4.08 343.02 4.23 C 351.26 3.04 360.25 4.30 367.75 0.00 M 374.41 40.57 C 365.20 41.19 356.17 43.25 346.97 43.92 C 341.28 44.40 335.76 45.88 330.22 47.16 C 318.82 48.87 307.74 52.16 296.76 55.57 C 291.43 56.51 286.64 59.19 281.41 60.48 C 243.70 74.01 208.31 93.94 177.19 119.19 C 158.59 134.47 141.11 151.26 126.20 170.20 C 93.43 209.39 69.89 256.05 56.39 305.22 C 55.33 312.19 52.55 318.75 51.70 325.75 C 51.04 330.76 49.44 335.58 48.64 340.56 C 47.62 346.49 47.67 352.54 46.45 358.43 C 43.36 376.11 44.52 394.14 44.34 412.00 C 44.10 423.40 45.12 434.78 47.17 445.99 C 47.75 454.36 49.03 462.66 51.14 470.79 C 52.17 479.22 55.04 487.25 56.63 495.57 C 58.35 500.39 59.68 505.32 60.92 510.28 C 63.46 515.95 64.40 522.16 67.17 527.73 C 80.93 564.49 100.76 599.00 125.75 629.26 C 130.65 635.63 135.92 641.70 141.62 647.37 C 148.92 656.06 157.57 663.43 165.84 671.15 C 183.11 686.63 202.25 699.87 222.02 711.93 C 243.01 723.57 264.64 734.40 287.63 741.47 C 292.86 744.05 298.79 744.49 304.14 746.78 C 309.93 748.37 315.77 749.81 321.58 751.34 C 331.83 752.70 341.72 756.14 352.11 756.56 C 361.36 757.81 370.60 759.56 379.98 759.59 C 393.32 759.74 406.67 759.74 420.02 759.59 C 429.40 759.56 438.64 757.82 447.89 756.56 C 458.55 756.16 468.70 752.65 479.21 751.18 C 485.92 749.15 492.88 748.02 499.44 745.52 C 503.24 744.17 507.36 743.83 511.01 742.04 C 540.91 732.22 569.57 718.29 595.69 700.68 C 666.11 654.28 718.58 581.81 741.81 500.86 C 744.14 494.40 744.77 487.50 747.01 481.01 C 748.33 474.19 749.72 467.38 751.31 460.61 C 752.44 446.37 755.78 432.33 755.62 418.00 C 755.73 405.33 755.73 392.66 755.60 380.00 C 755.63 370.28 753.85 360.70 752.56 351.10 C 752.09 343.02 750.49 335.10 748.65 327.24 C 747.86 319.40 744.58 312.15 743.43 304.39 C 741.22 297.61 739.60 290.66 736.99 284.01 C 734.65 275.19 730.59 266.98 727.41 258.45 C 714.91 229.33 698.99 201.58 679.16 176.82 C 638.49 123.87 582.06 83.48 519.38 60.73 C 513.29 59.36 507.82 56.14 501.62 55.16 C 494.06 52.40 486.18 50.77 478.43 48.66 C 468.20 47.31 458.34 43.76 447.97 43.41 C 438.68 42.25 429.42 40.41 420.03 40.41 C 404.82 40.30 389.61 40.14 374.41 40.57 Z"/>
</g>
</svg>